Patient4_TMGait_0pt8_01_right_42_EMG.mot
version=1
nRows=36
nColumns=33
inDegrees=no
endheader
time	1LAddLong	2LGlutMax	3LGlutMed	4LIliopsoas	5LSemiMemb	6LBicFemLong	7LRecFem	8LVastMed	9LVastLat	10LGasMed	11LTibAnt	12lTibPost	13LPeroneusLong	14LSol	15LExtDigLong	16LFlexDigLong	17RAddLong	18RGlutMax	19RGlutMed	20RIliopsoas	21RSemiMemb	22RBicFemLong	23RRecFem	24RVastMed	25RVastLat	26RGasMed	27RTibAnt	28RTibPost	29RPeroneusLong	30RSol	31RExtDigLong	32RFlexDigLong
48.358	0.020905	0.079041	-0.06897	-0.002441	-0.032959	-0.011139	0.30304	0.006866	-0.053101	0.10056	-0.16678	-0.025024	0.22675	0.29205	-0.090179	0.021667	0.015106	-0.15793	-0.16113	-0.01709	0.046997	0.049896	-0.047913	0.011139	0.010681	-0.029907	0.085449	-0.005493	-0.048828	0.017853	-0.002899	0.03067
48.359	0.023193	0.11627	0.036163	0.000305	0.067139	-0.050964	0.22171	0.00412	-0.078278	0.16342	-0.036469	-0.03067	0.15015	0.28214	-0.159	0.014343	0.06485	-0.15778	-0.30609	-0.07782	0.13596	0.037537	-0.048676	-0.02594	0.005646	-0.026855	-0.017242	-0.00824	0.007019	-0.015717	-0.001831	0.034332
48.36	0.024567	0.078278	0.018158	-0.002136	0.072021	-0.014191	0.23117	-0.003357	-0.037842	0.1738	0.048218	-0.015564	0.058441	0.14893	0.015717	0.007935	0.097046	-0.10208	-0.6163	-0.084381	0.045776	0.019073	-0.020142	-0.009766	-0.012207	-0.027313	-0.038147	-0.007477	0.21652	-0.029907	0.001831	0.001831
48.361	0.024872	0.091705	0.05249	0.013428	0.055237	0.033417	0.2359	-0.002747	-0.054626	0.19592	0.03952	-0.023956	-0.004578	0.022736	-0.057373	0.000153	0.074768	-0.084229	-0.99197	0.079651	0.005951	-0.016632	0.006409	0.006256	0.004272	-0.045471	0.084839	-0.001678	-0.032501	-0.00473	-0.001984	0.003967
48.362	0.00946	0.082092	0.049133	0.002441	0.021362	0.05127	0.28397	0.007782	-0.16205	0.17441	0.062866	-0.023956	-0.009613	0.082855	-0.21896	0.009918	0.058899	-0.081635	-0.90591	0.14358	0.006561	-0.032043	-0.028839	0.006256	0.013428	-0.061646	0.10452	-0.008087	-0.11002	0.005493	-0.001068	0.02594
48.363	0.006104	0.098419	-0.031586	0.018768	0.007629	0.031281	0.28763	0.005951	-0.22949	0.1828	0.10407	-0.00473	-0.018005	0.1059	-0.36987	0.016327	0.046997	-0.005951	-0.28686	0.075989	0.010071	-0.051575	-0.026398	-0.02121	-0.004425	-0.082703	0.056763	-0.004578	-0.090027	-0.010834	-0.00351	0.016632
48.364	0.007172	0.070801	-0.009766	0.009308	0.007324	-0.019684	0.28122	0.009003	-0.25665	0.023193	0.068207	-0.010223	-0.029755	0.20477	-0.091248	0.015717	0.026245	-0.055084	0.48798	-0.014648	-0.018921	-0.044556	-0.066071	-0.005646	0.007172	-0.11398	0.03067	-0.010681	-0.010681	-0.007935	-0.000458	-0.00885
48.365	0.009613	0.071106	-0.080719	0.011139	0.00351	-0.061493	0.2005	0.00412	-0.083923	-0.016632	0.034637	0.001373	-0.034485	0.097198	-0.081177	0.009613	0.016022	-0.11154	0.45792	-0.031891	-0.014038	-0.030212	-0.077057	-0.025177	0.016479	-0.14008	0.035858	-0.011749	-0.004883	-0.012665	-0.003967	0.005951
48.366	0.00351	0.063324	-0.069275	0.015717	0.000305	-0.055084	0.20889	-0.006104	-0.14465	0.001221	0.023651	-0.015106	-0.039673	-0.045471	-0.09552	0.01297	-0.002747	-0.074463	0.95932	-0.074921	0.027313	-0.011597	-0.067749	0.019226	0.007324	-0.18265	0.038605	-0.010681	-0.070953	-0.019989	-0.002441	0.014191
48.367	0.009308	0.066681	-0.037537	0.024719	-0.00824	-0.039673	0.23025	0.005798	-0.065155	-0.009766	0.011749	-0.005646	-0.037384	-0.083923	-0.024414	0.007629	-0.017395	-0.061188	0.40909	-0.077057	0.054932	-0.008545	-0.085144	0.054016	0.022125	-0.26764	0	-0.013428	-0.091248	-0.034637	-0.004578	0.010071
48.368	0.010681	0.08255	-0.022125	0.006866	-0.012665	-0.001831	0.28107	0.000305	0.11063	-0.038452	0.019989	0.011902	-0.089264	-0.1149	0.033264	0.014801	-0.034637	-0.048523	-0.074463	-0.090179	0.040283	-0.009308	-0.10147	0.063171	0.020447	-0.39124	-0.024414	-0.006256	-0.016632	-0.045319	-0.001373	0.005493
48.369	0.004272	0.07431	-0.02533	-0.010071	-0.007324	0.023499	0.31418	-0.00473	-0.000305	-0.029297	0.038147	-0.00473	-0.11185	-0.1535	0.081024	0.020905	-0.031433	-0.038147	-0.2565	-0.07309	-0.018768	-0.052643	-0.048981	0.007324	0.01709	-0.48386	-0.016174	-0.009766	-0.078583	-0.011597	-0.001984	0.014191
48.37	0.010071	0.08728	-0.086975	0.010376	0.02533	-0.010376	0.25864	0.000153	-0.046692	0.026398	0.034485	0.004883	-0.089111	-0.10742	0.094604	0.00473	-0.043335	-0.012207	-0.48401	0.041962	-0.067444	0.031586	-0.062103	0.00824	-0.008392	-0.36468	0.024872	-0.014038	-0.056763	0.054779	-0.002899	0.020905
48.371	0.009003	0.094452	-0.082703	0.002441	0.03891	-0.000153	0.18738	-0.001984	-0.069122	0.042572	0.016785	0.022125	0.002136	-0.053558	0.10483	-0.02243	-0.03479	0.071716	-0.31662	0.007477	0.006256	0.22903	-0.065613	0.032806	0.015106	-0.005188	0.085602	-0.015411	-0.075226	0.039063	-0.002136	0.015411
48.372	0.011292	0.096588	-0.081329	0.011292	0.015564	-0.010376	0.18066	0.002747	-0.04715	0.06073	0.015564	0.02243	0.10056	0.26764	0.09613	0.02243	-0.033569	0.079651	-0.021973	-0.011292	0.078583	0.20783	-0.08316	0.065765	0.019836	0.29175	0.20126	-0.003967	-0.51285	0.010986	-0.000458	0.016632
48.373	0.007782	0.1091	-0.029449	0.013123	0.013733	-0.019226	0.18616	0.005341	-0.064545	0.19791	0.016479	-0.006866	0.10086	0.35477	0.058594	0.063782	-0.011597	0.06958	-0.044556	0.031586	-0.015106	0.075226	-0.031891	0.020142	0.011444	0.51407	0.18875	-0.001678	-0.33905	-0.098419	0.000916	0.01297
48.374	-0.001373	0.11368	-0.062714	0.004425	0	0.010223	0.2092	0.006866	-0.080719	0.11368	0.015259	-0.005341	-0.008545	0.19852	0.049896	0.028381	0.020752	-0.02121	-0.20126	0.055847	-0.14832	-0.027924	-0.042267	-0.008545	0.010071	0.62485	0.15045	-0.00946	0.36728	-0.096436	-0.006104	0.011902
48.375	0.008087	0.12222	-0.15884	0.004425	-0.008698	0.010986	0.20187	0.009918	-0.083313	-0.039368	0.015717	0.007324	-0.028534	0.068665	0.050659	0.009613	0.006409	0.012054	-0.45166	0.036621	-0.2945	0.035706	-0.048828	-0.008392	0.003662	0.75485	0.0914	-0.00885	0.75363	-0.1001	-0.000153	0.02533
48.376	0.016632	0.097809	-0.19043	0.013428	0.004272	0.00946	0.18143	0.003357	-0.081635	-0.039368	0.028687	0.020142	0.14084	0.020142	0.054321	0.001831	-0.029449	0.089417	-0.74493	-0.016479	-0.23895	0.096283	-0.007019	0.025482	0.021515	0.78018	0.019379	-0.009155	0.069427	-0.10132	-0.000916	0.021667
48.377	0.01236	0.12207	-0.10284	0.027618	0.00885	-0.003204	0.14648	0.005951	-0.067444	-0.019073	0.045776	0.016327	0.53177	-0.024109	0.060425	0.000763	-0.040283	0.11963	-0.61279	-0.084839	0.13748	0.15518	-0.066223	0.10742	0.032806	0.65674	0.016632	-0.011292	0.14923	-0.093689	0.000153	0.015869
48.378	0.006409	0.13977	-0.072021	-0.008392	-0.004578	0.00412	0.13351	0.009613	-0.035095	0.00351	0.042114	0.023804	0.48218	0.041504	0.046997	0.01236	-0.032654	0.14481	-0.48492	-0.048065	0.1294	0.21378	-0.046844	0.10727	0.032196	0.44739	-0.021515	-0.014191	0.35812	-0.091553	-0.002136	0.020905
48.379	0.009766	0.096588	-0.1506	-0.040588	-0.005493	-0.00885	0.16251	0.007477	-0.08255	-0.075073	-0.029144	0.44922	0.023346	0.10117	0.049286	0.014496	-0.005341	0.068207	-0.15243	0.02182	0.16983	0.22659	-0.076447	0.057068	0.037384	0.24536	0.042419	-0.0177	-0.086823	-0.037689	-0.004272	0.016785
48.38	0.011597	0.079498	-0.060272	-0.050659	-0.003815	-0.015259	0.17105	0.003815	-0.09201	-0.13977	-0.012512	-0.001678	-0.26871	0.35156	0.043335	-0.00061	0.020294	0.034332	-0.29999	0.087433	0.11169	0.13367	-0.041656	0.074005	0.038452	0.11307	-0.065765	-0.015259	-0.43747	0.043945	-0.005798	0.018311
48.381	0.011597	0.080109	-0.001831	-0.043182	-0.01236	-0.019989	0.17807	0.003357	-0.080261	-0.11597	-0.003357	0.06012	0.11536	0.12878	-0.003052	-0.00351	0.049744	-0.016174	-0.52917	0.001526	0.10544	0.008392	-0.034332	0.052795	0.029297	0.020752	-0.16419	-0.014801	-0.63522	0.15305	-0.00473	0.015411
48.382	0.003967	0.11169	-0.019531	0.007629	-0.009766	0.000153	0.15686	-0.000763	-0.078125	-0.11093	0.004883	-0.033112	0.20248	0.22049	-0.010681	0.013885	0.073395	0.032349	-0.1149	-0.086212	0.15869	-0.10788	-0.059509	-0.015259	0.018005	-0.007324	-0.016327	-0.021362	-0.089417	0.13199	-0.003052	0.029144
48.383	0.011444	0.11185	-0.022125	0.022583	-0.010376	0.032196	0.14847	0.003052	-0.059967	-0.098572	0.01236	-0.20203	-0.067749	0.26062	0.0354	0.016937	0.085297	0.052948	0.096588	-0.080872	0.14954	-0.13489	-0.024567	-0.095673	-0.007782	-0.037689	-0.084991	-0.017548	-0.17273	0.024872	-0.003204	0.02655
48.384	0.00412	0.1236	-0.037231	0.006104	-0.001831	-0.002747	0.1561	0.013123	-0.048218	-0.097809	0.03067	-0.055695	-0.56732	0.097656	-0.015869	-0.000153	0.069427	0.022125	-0.05722	0.005188	-0.073395	0.008392	0.003357	-0.089264	0.014648	-0.048676	-0.066528	-0.019836	-0.2153	-0.04303	-0.006714	0.025635
48.385	0.01297	0.15335	0.030518	0.005951	0.001984	0.002136	0.16113	0.004578	-0.037842	-0.083008	0.028992	-0.045166	-0.43442	-0.27557	-0.081635	0.007629	0.005493	0.00885	-0.039215	0.078583	-0.39352	0.13397	-0.055695	0.013275	0.020599	-0.056	-0.054169	-0.024872	-0.13855	-0.048218	-0.001678	0.019836
48.386	0.013885	0.15778	0.011597	-0.002441	-0.007172	0.014038	0.15305	0.004578	-0.030212	-0.050964	-0.000305	-0.050507	-0.1648	-0.44174	-0.11536	0.001526	-0.017853	0.026093	0.13153	0.064697	-0.37445	0.092773	-0.046387	0.092468	0.016022	-0.063934	-0.028381	-0.02243	0.17532	-0.056	-0.007477	0.020599
48.387	0.000458	0.18249	0.034332	0.006714	-0.001373	-0.014954	0.14893	0.008392	-0.037994	-0.1648	-0.002136	-0.050201	0.066071	-0.16556	-0.052948	-0.006104	-0.015717	0.010071	0.001373	0.001678	0.041046	0.067596	-0.065765	0.064392	0.013733	-0.06485	-0.019531	-0.023804	0.38345	0.025177	-0.000153	0.012207
48.388	-0.002747	0.20752	0.073395	0.017548	-0.017395	0.003815	0.15533	0.003204	-0.039368	-0.24384	0.003815	-0.037689	0.040283	0.29007	0.063782	-0.005341	-0.014343	0.021057	0.21316	-0.083466	-0.012054	-0.044098	-0.061493	0.006409	-0.006561	-0.070038	0.054474	-0.023041	0.37659	0.062408	-0.003204	0.014801
48.389	0.007935	0.18677	0.080261	0.014038	-0.040741	-0.006866	0.1532	0.009155	-0.032196	-0.20111	0.023041	-0.046234	-0.083618	0.22095	0.055847	-0.003357	-0.010223	0.020447	0.099487	-0.14221	-0.040741	-0.11505	-0.034485	0.013733	0.007324	-0.06897	0.10696	-0.027771	0.21393	0.056152	0	0.00351
48.39	0.003967	0.26154	0.11322	0.016327	-0.050964	-0.037689	0.20355	0.003815	-0.027161	-0.17929	0.026703	-0.040588	-0.036163	0.16434	0.012512	-0.005188	0.030518	-0.066833	-0.15396	-0.064392	0.033722	-0.14038	-0.041504	-0.034943	-0.00946	-0.080414	0.044098	-0.027008	0.036011	0.076447	-0.004425	0.000763
48.391	0.00946	0.3125	0.098114	0.020294	-0.004883	-0.04364	0.21637	0.003204	-0.02655	-0.12466	0.013275	-0.030212	-0.14374	0.07019	0.024261	-0.00946	0.052643	-0.059357	-0.29984	0.12878	0.22888	-0.10651	-0.027313	-0.052032	0.005341	-0.082092	-0.059814	-0.027161	0.016022	0.09613	0.000153	-0.00061
48.392	0.014954	0.32318	0.047302	0.023041	0.053406	-0.018616	0.19989	0.003204	-0.045166	-0.040894	-0.002747	-0.006866	-0.18982	0.020752	0.025635	-0.10925	0.042419	-0.095978	-0.24429	0.28656	-0.078583	-0.023499	-0.016479	-0.006561	0.002441	-0.06958	-0.11185	-0.029144	0.068512	0.032196	-0.000305	0.001831
48.393	0.022736	0.34012	0.052643	0.02121	0.035553	0.011902	0.15717	-0.001984	-0.075989	-0.13504	0.004272	0.12009	-0.22583	0.18906	0.009918	0.004425	0.042725	-0.069885	-0.36209	0.1915	-0.39978	0.030975	0.004578	-0.06546	-0.011444	-0.056915	-0.068817	-0.029755	0.078735	0.002136	-0.003204	0.003204
